<?xml version="1.0" encoding="UTF-8"?>
<svg id="Calque_2" data-name="Calque 2" xmlns="http://www.w3.org/2000/svg" viewBox="0 0 1008.78 147.75">
  <defs>
    <style>
      .cls-1 {
        fill: #007cbd;
      }

      .cls-2 {
        fill: #1d1d1b;
        fill-rule: evenodd;
      }
    </style>
  </defs>
  <g id="Calque_1-2" data-name="Calque 1">
    <g>
      <path class="cls-1" d="M999.52,11.55c-7.2-6.3-16.7-9.5-28.4-9.5h-139c-5.8,0-11,4.7-11.6,10.5-4.5,41.6-11.8,83.2-15.5,124.7-.5,5.8,3.8,10.5,9.7,10.5h139.2c10.8,0,20.5-3.1,29.3-9.2,8.8-6.1,13.6-13.8,14.7-23,2.5-21.5,5.6-43,8.5-64.5.7-5.4,1.5-10.8,2.1-16.2,1.2-9.2-1.8-16.9-9-23.3ZM965.62,50.65c-2.2,16.1-4.5,32.2-6.5,48.3-.6,4.5-3.3,8.4-8.2,11.6-4.9,3.3-10.7,5-17.3,5h-85.7c3.1-27.1,7.3-54.2,10.7-81.3h85.7c6.1,0,11.3,1.7,15.7,5.1,4.4,3.3,6.3,7.1,5.7,11.3h-.1ZM796.62,11.35c-7.7-6.2-16.9-9.3-27.7-9.3h-86.9c-12.1,0-22,3-29.7,9.1-7.6,6-12.1,13.9-13.3,23.4-.2,1.8-.5,3.6-.7,5.4-.7,5.8,3.3,10.5,9.1,10.5h19.6c4.2,0,8.1-2.6,10.4-6.3,1.2-1.9,2.9-3.6,5-5.1,4.2-3.1,9.6-4.5,16.1-4.5h53.1c4.5,0,7.9,1,10.2,3,2.4,2,3.2,5.5,2.5,10.5-.6,4.7-2.5,8.2-5.7,10.5-2.5,1.9-5.9,2.8-10.1,2.8h-26.9c-5.8,0-11.2,4.7-12,10.5-.3,2.3-.6,4.7-1,7-.8,5.9,3.3,10.6,9.2,10.5,9.1,0,18.2-.2,27.3-.3h2.5c3.2,0,5.8,1.1,7.6,3.1,1.8,2.1,2.5,5.2,1.9,9.4-.6,4.8-2.4,8.3-5.3,10.4-3,2.1-6.6,3.1-10.9,3.1h-52.2c-6.3,0-11.4-1.6-15.2-4.7-2-1.6-3.4-3.4-4.2-5.4-1.4-3.7-4.7-6.1-8.8-6.1h-19.7c-5.8,0-11.1,4.7-11.8,10.5-.2,1.9-.5,3.8-.7,5.7-1.1,9.3,1.7,17.1,8.2,23.3s15.9,9.3,28,9.3h86.9c10.8,0,20.6-3.1,29.4-9.3,8.8-6.2,13.8-13.9,14.8-23.3.6-5.4,1.3-10.8,2-16.2.7-5.4.7-9.7,0-12.9-1-4.3-3.4-8-7.2-10.9,4.1-1.6,7.4-4.9,9.9-9.9,1.9-3.9,3.2-8.8,4-14.5.7-5.3,1.4-10.7,2.1-16,1.2-9.3-2.1-17.1-9.7-23.3h-.1Z"/>
      <path class="cls-2" d="M121.22,132.85h-7.9c-4,0-7.4-2.2-8.8-5.8-3.5-8.6-6.8-17.1-10.1-25.7h-21.9c-5.6,0-9.3-4.2-9.3-9.2s.5-4,1.7-5.9c2.2-3.7,6.2-6,10.3-6h11.2c-3.6-9.7-7.2-19.5-10.8-29.2-16.3,25.4-32.8,50.7-48.3,76-2.2,3.6-6.1,5.8-10.1,5.8s-5.3,0-7.9-.1c-7.7-.1-11.9-8.3-7.6-15.2C24.52,80.35,49.42,43.15,71.72,5.85c4.6-7.8,15.7-7.8,18.8,0,14.9,37.3,27.2,74.5,41.7,111.8,2.7,7-3.2,15.2-11,15.2h0Z"/>
      <path class="cls-2" d="M152.62,17.95h92.8c5.8,0,10,4.7,9.3,10.5-.3,2.5-.6,5-.9,7.4-.7,5.8-6.1,10.5-11.9,10.5h-32.1c-3.3,25-7,49.9-9.8,74.9-.6,5.8-5.8,10.5-11.6,10.5h-7.4c-5.8,0-10.1-4.7-9.4-10.5,2.7-25,6.4-49.9,9.8-74.9h-32.1c-5.8,0-9.9-4.7-9.1-10.5.3-2.5.6-5,.9-7.4.7-5.8,6-10.5,11.8-10.5h-.3,0Z"/>
      <path class="cls-2" d="M356.72,34.75c-9.7-11.2-22.5-16.8-38.2-16.8s-29.8,5.6-42.2,16.7c-12.5,11.1-19.9,24.5-22.1,40.2-2.2,15.8,1.6,29.2,11.4,40.3,9.8,11.1,22.8,16.7,38.6,16.7s29.6-5.5,41.9-16.6c12.5-11.1,19.8-24.6,22-40.4,2.2-15.7-1.6-29.1-11.3-40.2h0l-.1.1ZM339.52,74.95c-1.1,7.9-4.8,14.6-11.1,20.1-6.3,5.6-13.3,8.3-21.1,8.3s-14.2-2.8-19-8.3-6.7-12.3-5.6-20.1c1-7.8,4.8-14.5,11.1-20,6.3-5.6,13.4-8.4,21.2-8.4s14.1,2.8,18.9,8.4c4.9,5.6,6.8,12.3,5.7,20h-.1Z"/>
      <path class="cls-2" d="M385.72,131.85h7.4c5.8,0,11-4.7,11.6-10.5,2.2-20.2,5-40.4,7.8-60.7l22.1,11.9c2.8,1.5,6.2,1.5,9.4,0,8.5-4,16.9-7.9,25.4-11.9-2.8,20.2-5.6,40.4-7.8,60.7-.6,5.8,3.6,10.5,9.5,10.5h7.4c5.8,0,11-4.7,11.6-10.5,3.4-30.9,8.3-61.9,12-92.8.7-5.8-3.5-10.5-9.3-10.5h-7.4c-5.8,0-11,4.7-11.8,10.5-.1,1.2-.3,2.5-.5,3.7-10.1,4.8-20.2,9.5-30.3,14.2-8.9-4.8-17.7-9.5-26.6-14.2.1-1.2.3-2.5.5-3.7.7-5.8-3.5-10.5-9.3-10.5h-7.4c-5.8,0-11.1,4.7-11.8,10.5-3.8,30.9-8.7,61.9-12,92.8-.6,5.8,3.6,10.5,9.5,10.5h0Z"/>
      <path class="cls-2" d="M598.02,60.85h-73.1c-5.8,0-11.2,4.7-12,10.5-.3,2.5-.7,5-1,7.4-.8,5.8,3.3,10.5,9.1,10.5h73.1c5.8,0,11.1-4.7,11.9-10.5.3-2.4.7-4.9,1-7.4.8-5.8-3.2-10.5-9.1-10.5h.1ZM603.62,17.95h-73.1c-5.8,0-11.1,4.7-11.8,10.5-.3,2.5-.6,4.9-.9,7.4-.8,5.8,3.3,10.5,9.1,10.5h73.2c5.8,0,11.2-4.7,11.9-10.5.3-2.5.6-4.9.9-7.4.7-5.8-3.5-10.5-9.3-10.5h0ZM592.42,103.45h-73.2c-5.8,0-11.1,4.7-11.8,10.5-.3,2.5-.6,4.9-.9,7.4-.6,5.8,3.7,10.5,9.5,10.5h73.2c5.8,0,11-4.7,11.6-10.5.3-2.5.5-4.9.8-7.4.7-5.8-3.4-10.5-9.2-10.5h0Z"/>
    </g>
  </g>
</svg>
